<svg width="606" height="827" viewBox="0 0 606 827" fill="none" xmlns="http://www.w3.org/2000/svg">
<path d="M294.118 -15.4649C297.086 -21.5661 303.372 -25.3441 310.153 -25.1023L604.959 -14.5897C614.188 -14.2606 621.5 -6.68349 621.5 2.55142L621.5 571.613C621.5 581.086 613.821 588.765 604.348 588.765L27.5707 588.765C14.9014 588.765 6.60451 575.502 12.1471 564.109L294.118 -15.4649Z" fill="#3298F9"/>
<circle cx="236" cy="194" r="113" fill="#B1D9FF"/>
<path d="M68 169.469L84.4721 185.888C93.8617 195.248 109.135 194.977 118.186 185.29V185.29C127.441 175.385 143.195 175.418 152.482 185.292V185.292C161.582 194.966 176.919 195.295 186.356 185.95L203 169.469" stroke="#3298F9" stroke-width="23"/>
<circle cx="68" cy="248" r="16" fill="#3298F9"/>
</svg>
