<svg width="889" height="323" viewBox="0 0 889 323" fill="none" xmlns="http://www.w3.org/2000/svg">
<path opacity="0.3" d="M9 8.46857L25.4721 24.8884C34.8617 34.2481 50.1349 33.977 59.1864 24.29V24.29C68.4413 14.3853 84.1948 14.4183 93.4824 24.2924V24.2924C102.582 33.9663 117.919 34.2947 127.356 24.9499L144 8.46857" stroke="#3298F9" stroke-width="23"/>
<path opacity="0.3" d="M363 314.531L379.472 298.112C388.862 288.752 404.135 289.023 413.186 298.71V298.71C422.441 308.615 438.195 308.582 447.482 298.708V298.708C456.582 289.034 471.919 288.705 481.356 298.05L498 314.531" stroke="#3298F9" stroke-width="23"/>
<circle opacity="0.3" cx="873" cy="116" r="16" fill="#3298F9"/>
<circle opacity="0.3" cx="291" cy="258" r="8" fill="#3298F9"/>
<rect x="375" y="49" width="406" height="62" rx="20" fill="#3298F9"/>
<path d="M795.024 102.785L773.588 104.634L779.829 87.5518L780.837 90.1973C782.851 95.4834 787.009 99.6694 792.281 101.719L795.024 102.785Z" fill="#3298F9"/>
<rect width="338" height="62" rx="20" transform="matrix(-1 0 0 1 550 143)" fill="#185B9B"/>
<path d="M198.121 196.785L219.557 198.634L213.316 181.552L212.308 184.197C210.294 189.483 206.136 193.669 200.864 195.719L198.121 196.785Z" fill="#185B9B"/>
<path d="M407.186 75H410.426L413.036 63.714L415.646 75H418.886L421.856 62.4H419.786L417.266 73.614L414.746 62.4H411.326L408.806 73.614L406.286 62.4H404.216L407.186 75ZM425.472 75V70.464C425.472 68.808 426.444 67.854 427.614 67.854C428.874 67.854 429.576 68.574 429.576 69.924V75H431.466V69.384C431.466 67.584 430.314 66.288 428.424 66.288C426.984 66.288 425.922 67.044 425.472 68.214V62.4H423.582V75H425.472ZM436.533 75.18C438.117 75.18 439.035 74.46 439.395 73.56V75H441.195V69.69C441.195 67.53 439.845 66.288 437.415 66.288C435.255 66.288 433.995 67.44 433.635 69.06L435.345 69.51C435.525 68.52 436.245 67.818 437.415 67.818C438.495 67.818 439.395 68.43 439.395 69.6V70.23L438.495 70.014C437.991 69.888 437.487 69.834 436.983 69.834C435.255 69.834 433.725 70.608 433.725 72.57C433.725 74.28 435.165 75.18 436.533 75.18ZM437.289 73.56C436.155 73.56 435.705 73.02 435.705 72.39C435.705 71.598 436.371 71.256 437.289 71.256C437.631 71.256 438.009 71.31 438.711 71.49L439.395 71.67V71.76C439.395 72.93 438.495 73.56 437.289 73.56ZM447.335 75.18C448.955 75.18 450.035 74.19 450.215 72.48L448.415 72.12C448.343 73.11 447.965 73.56 447.245 73.56C446.705 73.56 446.165 73.2 446.165 72.39V68.088H449.405V66.468H446.165V63.75H444.275V66.468H442.565V68.088H444.275V72.3C444.275 74.01 445.265 75.18 447.335 75.18ZM459.34 75.18C460.924 75.18 461.842 74.46 462.202 73.56V75H464.002V69.69C464.002 67.53 462.652 66.288 460.222 66.288C458.062 66.288 456.802 67.44 456.442 69.06L458.152 69.51C458.332 68.52 459.052 67.818 460.222 67.818C461.302 67.818 462.202 68.43 462.202 69.6V70.23L461.302 70.014C460.798 69.888 460.294 69.834 459.79 69.834C458.062 69.834 456.532 70.608 456.532 72.57C456.532 74.28 457.972 75.18 459.34 75.18ZM460.096 73.56C458.962 73.56 458.512 73.02 458.512 72.39C458.512 71.598 459.178 71.256 460.096 71.256C460.438 71.256 460.816 71.31 461.518 71.49L462.202 71.67V71.76C462.202 72.93 461.302 73.56 460.096 73.56ZM466.673 66.468V75H468.563V69.33C468.563 68.43 469.103 67.908 469.913 67.908C470.633 67.908 471.173 68.376 471.173 69.06C471.173 69.33 471.155 69.51 471.101 69.78H472.973C473.063 69.42 473.099 69.06 473.099 68.7C473.099 67.35 472.073 66.288 470.633 66.288C469.607 66.288 468.905 66.81 468.563 67.71V66.468H466.673ZM479.044 73.56C477.838 73.56 476.488 72.84 476.488 71.04H482.518C482.572 70.752 482.608 70.446 482.608 70.05C482.608 67.692 480.97 66.288 478.756 66.288C476.218 66.288 474.598 68.25 474.598 70.68C474.598 73.47 476.398 75.18 479.026 75.18C481.078 75.18 482.392 74.136 482.968 72.39L481.348 71.76C481.078 72.93 480.268 73.56 479.044 73.56ZM478.738 67.908C479.854 67.908 480.736 68.538 480.736 69.618C480.736 69.69 480.718 69.78 480.718 69.78H476.488C476.668 68.61 477.568 67.908 478.738 67.908ZM495.522 66.468L493.038 71.688L490.716 66.468H488.682L492.048 73.74L489.762 78.564H491.742L497.502 66.468H495.522ZM502.833 75.18C505.443 75.18 507.225 73.254 507.225 70.734C507.225 68.214 505.443 66.288 502.833 66.288C500.223 66.288 498.441 68.214 498.441 70.734C498.441 73.254 500.223 75.18 502.833 75.18ZM502.833 73.47C501.393 73.47 500.331 72.354 500.331 70.734C500.331 69.114 501.393 67.998 502.833 67.998C504.273 67.998 505.335 69.114 505.335 70.734C505.335 72.354 504.273 73.47 502.833 73.47ZM515.138 66.468V70.95C515.138 72.57 514.238 73.56 512.978 73.56C511.898 73.56 511.268 72.84 511.268 71.49V66.468H509.378V71.94C509.378 74.19 510.728 75.18 512.492 75.18C513.788 75.18 514.598 74.55 515.138 73.65V75H517.028V66.468H515.138ZM519.687 66.468V75H521.577V69.33C521.577 68.43 522.117 67.908 522.927 67.908C523.647 67.908 524.187 68.376 524.187 69.06C524.187 69.33 524.169 69.51 524.115 69.78H525.987C526.077 69.42 526.113 69.06 526.113 68.7C526.113 67.35 525.087 66.288 523.647 66.288C522.621 66.288 521.919 66.81 521.577 67.71V66.468H519.687ZM532.922 62.4V75H534.74V73.74C535.37 74.73 536.432 75.18 537.512 75.18C539.942 75.18 541.562 73.398 541.562 70.788C541.562 68.178 540.032 66.288 537.692 66.288C536.522 66.288 535.388 66.954 534.812 67.98V62.4H532.922ZM534.74 70.788C534.74 69.078 535.946 67.998 537.206 67.998C538.556 67.998 539.672 69.132 539.672 70.788C539.672 72.444 538.556 73.506 537.206 73.506C535.946 73.506 534.74 72.498 534.74 70.788ZM543.634 65.01H545.704V62.94H543.634V65.01ZM543.724 66.468V75H545.614V66.468H543.724ZM552.281 78.744C554.981 78.744 556.421 76.89 556.421 74.28V66.468H554.531V67.62C553.991 66.81 553.181 66.288 551.831 66.288C549.581 66.288 547.781 68.07 547.781 70.77C547.781 73.38 549.491 75 551.651 75C553.091 75 554.081 74.37 554.531 73.47V74.37C554.531 75.99 553.901 77.124 552.281 77.124C551.111 77.124 550.211 76.53 549.941 75.36L548.231 76.08C548.861 77.97 550.301 78.744 552.281 78.744ZM552.137 73.38C550.751 73.38 549.671 72.408 549.671 70.77C549.671 68.97 550.751 67.908 552.137 67.908C553.541 67.908 554.603 69.06 554.603 70.662C554.603 72.246 553.541 73.38 552.137 73.38ZM563.082 78.744C565.782 78.744 567.222 76.89 567.222 74.28V66.468H565.332V67.62C564.792 66.81 563.982 66.288 562.632 66.288C560.382 66.288 558.582 68.07 558.582 70.77C558.582 73.38 560.292 75 562.452 75C563.892 75 564.882 74.37 565.332 73.47V74.37C565.332 75.99 564.702 77.124 563.082 77.124C561.912 77.124 561.012 76.53 560.742 75.36L559.032 76.08C559.662 77.97 561.102 78.744 563.082 78.744ZM562.938 73.38C561.552 73.38 560.472 72.408 560.472 70.77C560.472 68.97 561.552 67.908 562.938 67.908C564.342 67.908 565.404 69.06 565.404 70.662C565.404 72.246 564.342 73.38 562.938 73.38ZM573.83 73.56C572.624 73.56 571.274 72.84 571.274 71.04H577.304C577.358 70.752 577.394 70.446 577.394 70.05C577.394 67.692 575.756 66.288 573.542 66.288C571.004 66.288 569.384 68.25 569.384 70.68C569.384 73.47 571.184 75.18 573.812 75.18C575.864 75.18 577.178 74.136 577.754 72.39L576.134 71.76C575.864 72.93 575.054 73.56 573.83 73.56ZM573.524 67.908C574.64 67.908 575.522 68.538 575.522 69.618C575.522 69.69 575.504 69.78 575.504 69.78H571.274C571.454 68.61 572.354 67.908 573.524 67.908ZM583.014 75.18C584.958 75.18 586.488 74.082 586.488 72.48C586.488 71.058 585.678 70.176 583.518 69.852C581.97 69.618 581.358 69.42 581.358 68.736C581.358 68.196 582.006 67.8 582.852 67.8C583.662 67.8 584.256 68.142 584.526 68.934L585.966 68.142C585.462 67.062 584.598 66.288 582.834 66.288C581.088 66.288 579.648 67.26 579.648 68.7C579.648 70.176 580.764 70.914 582.582 71.202C584.31 71.472 584.688 71.85 584.688 72.57C584.688 73.128 584.112 73.56 583.086 73.56C581.934 73.56 581.178 73.11 580.71 72.03L579.18 72.84C579.72 74.226 580.98 75.18 583.014 75.18ZM592.428 75.18C594.048 75.18 595.128 74.19 595.308 72.48L593.508 72.12C593.436 73.11 593.058 73.56 592.338 73.56C591.798 73.56 591.258 73.2 591.258 72.39V68.088H594.498V66.468H591.258V63.75H589.368V66.468H587.658V68.088H589.368V72.3C589.368 74.01 590.358 75.18 592.428 75.18ZM605.171 75.18C607.115 75.18 608.645 74.082 608.645 72.48C608.645 71.058 607.835 70.176 605.675 69.852C604.127 69.618 603.515 69.42 603.515 68.736C603.515 68.196 604.163 67.8 605.009 67.8C605.819 67.8 606.413 68.142 606.683 68.934L608.123 68.142C607.619 67.062 606.755 66.288 604.991 66.288C603.245 66.288 601.805 67.26 601.805 68.7C601.805 70.176 602.921 70.914 604.739 71.202C606.467 71.472 606.845 71.85 606.845 72.57C606.845 73.128 606.269 73.56 605.243 73.56C604.091 73.56 603.335 73.11 602.867 72.03L601.337 72.84C601.877 74.226 603.137 75.18 605.171 75.18ZM615.012 69.96L618.324 66.468H615.894L612.654 70.05V62.4H610.764V75H612.654V72.444L613.716 71.328L616.254 75H618.504L615.012 69.96ZM620.315 65.01H622.385V62.94H620.315V65.01ZM620.405 66.468V75H622.295V66.468H620.405ZM626.856 75V70.248C626.856 68.736 627.756 67.908 628.872 67.908C629.916 67.908 630.636 68.664 630.636 70.068V75H632.526V69.42C632.526 67.422 631.266 66.288 629.538 66.288C628.476 66.288 627.486 66.684 626.856 67.71V66.468H624.966V75H626.856ZM641.168 70.68C641.168 68.79 642.518 67.908 643.688 67.908C644.948 67.908 645.848 68.7 646.028 69.96L647.738 69.42C647.378 67.44 645.758 66.288 643.688 66.288C641.348 66.288 639.368 68.07 639.368 70.68C639.368 73.38 641.168 75.18 643.958 75.18C646.028 75.18 647.738 74.01 648.188 71.76L646.478 71.13C646.298 72.39 645.578 73.56 643.868 73.56C642.518 73.56 641.168 72.48 641.168 70.68ZM654.087 75.18C656.697 75.18 658.479 73.254 658.479 70.734C658.479 68.214 656.697 66.288 654.087 66.288C651.477 66.288 649.695 68.214 649.695 70.734C649.695 73.254 651.477 75.18 654.087 75.18ZM654.087 73.47C652.647 73.47 651.585 72.354 651.585 70.734C651.585 69.114 652.647 67.998 654.087 67.998C655.527 67.998 656.589 69.114 656.589 70.734C656.589 72.354 655.527 73.47 654.087 73.47ZM662.521 75V70.248C662.521 68.736 663.421 67.908 664.537 67.908C665.581 67.908 666.301 68.664 666.301 70.068V75H668.191V69.42C668.191 67.422 666.931 66.288 665.203 66.288C664.141 66.288 663.151 66.684 662.521 67.71V66.468H660.631V75H662.521ZM672.148 70.68C672.148 68.79 673.498 67.908 674.668 67.908C675.928 67.908 676.828 68.7 677.008 69.96L678.718 69.42C678.358 67.44 676.738 66.288 674.668 66.288C672.328 66.288 670.348 68.07 670.348 70.68C670.348 73.38 672.148 75.18 674.938 75.18C677.008 75.18 678.718 74.01 679.168 71.76L677.458 71.13C677.278 72.39 676.558 73.56 674.848 73.56C673.498 73.56 672.148 72.48 672.148 70.68ZM685.121 73.56C683.915 73.56 682.565 72.84 682.565 71.04H688.595C688.649 70.752 688.685 70.446 688.685 70.05C688.685 67.692 687.047 66.288 684.833 66.288C682.295 66.288 680.675 68.25 680.675 70.68C680.675 73.47 682.475 75.18 685.103 75.18C687.155 75.18 688.469 74.136 689.045 72.39L687.425 71.76C687.155 72.93 686.345 73.56 685.121 73.56ZM684.815 67.908C685.931 67.908 686.813 68.538 686.813 69.618C686.813 69.69 686.795 69.78 686.795 69.78H682.565C682.745 68.61 683.645 67.908 684.815 67.908ZM691.102 66.468V75H692.992V69.33C692.992 68.43 693.532 67.908 694.342 67.908C695.062 67.908 695.602 68.376 695.602 69.06C695.602 69.33 695.584 69.51 695.53 69.78H697.402C697.492 69.42 697.528 69.06 697.528 68.7C697.528 67.35 696.502 66.288 695.062 66.288C694.036 66.288 693.334 66.81 692.992 67.71V66.468H691.102ZM701.543 75V70.248C701.543 68.736 702.443 67.908 703.559 67.908C704.603 67.908 705.323 68.664 705.323 70.068V75H707.213V69.42C707.213 67.422 705.953 66.288 704.225 66.288C703.163 66.288 702.173 66.684 701.543 67.71V66.468H699.653V75H701.543ZM713.078 75.18C715.022 75.18 716.552 74.082 716.552 72.48C716.552 71.058 715.742 70.176 713.582 69.852C712.034 69.618 711.422 69.42 711.422 68.736C711.422 68.196 712.07 67.8 712.916 67.8C713.726 67.8 714.32 68.142 714.59 68.934L716.03 68.142C715.526 67.062 714.662 66.288 712.898 66.288C711.152 66.288 709.712 67.26 709.712 68.7C709.712 70.176 710.828 70.914 712.646 71.202C714.374 71.472 714.752 71.85 714.752 72.57C714.752 73.128 714.176 73.56 713.15 73.56C711.998 73.56 711.242 73.11 710.774 72.03L709.244 72.84C709.784 74.226 711.044 75.18 713.078 75.18ZM405.152 88.468V97H407.042V91.33C407.042 90.43 407.582 89.908 408.392 89.908C409.112 89.908 409.652 90.376 409.652 91.06C409.652 91.33 409.634 91.51 409.58 91.78H411.452C411.542 91.42 411.578 91.06 411.578 90.7C411.578 89.35 410.552 88.288 409.112 88.288C408.086 88.288 407.384 88.81 407.042 89.71V88.468H405.152ZM413.613 87.01H415.683V84.94H413.613V87.01ZM413.703 88.468V97H415.593V88.468H413.703ZM422.261 100.744C424.961 100.744 426.401 98.89 426.401 96.28V88.468H424.511V89.62C423.971 88.81 423.161 88.288 421.811 88.288C419.561 88.288 417.761 90.07 417.761 92.77C417.761 95.38 419.471 97 421.631 97C423.071 97 424.061 96.37 424.511 95.47V96.37C424.511 97.99 423.881 99.124 422.261 99.124C421.091 99.124 420.191 98.53 419.921 97.36L418.211 98.08C418.841 99.97 420.281 100.744 422.261 100.744ZM422.117 95.38C420.731 95.38 419.651 94.408 419.651 92.77C419.651 90.97 420.731 89.908 422.117 89.908C423.521 89.908 424.583 91.06 424.583 92.662C424.583 94.246 423.521 95.38 422.117 95.38ZM430.956 97V92.464C430.956 90.808 431.928 89.854 433.098 89.854C434.358 89.854 435.06 90.574 435.06 91.924V97H436.95V91.384C436.95 89.584 435.798 88.288 433.908 88.288C432.468 88.288 431.406 89.044 430.956 90.214V84.4H429.066V97H430.956ZM443.424 97.18C445.044 97.18 446.124 96.19 446.304 94.48L444.504 94.12C444.432 95.11 444.054 95.56 443.334 95.56C442.794 95.56 442.254 95.2 442.254 94.39V90.088H445.494V88.468H442.254V85.75H440.364V88.468H438.654V90.088H440.364V94.3C440.364 96.01 441.354 97.18 443.424 97.18ZM454.852 97V92.248C454.852 90.736 455.752 89.908 456.868 89.908C457.912 89.908 458.632 90.664 458.632 92.068V97H460.522V91.42C460.522 89.422 459.262 88.288 457.534 88.288C456.472 88.288 455.482 88.684 454.852 89.71V88.468H452.962V97H454.852ZM467.072 97.18C469.682 97.18 471.464 95.254 471.464 92.734C471.464 90.214 469.682 88.288 467.072 88.288C464.462 88.288 462.68 90.214 462.68 92.734C462.68 95.254 464.462 97.18 467.072 97.18ZM467.072 95.47C465.632 95.47 464.57 94.354 464.57 92.734C464.57 91.114 465.632 89.998 467.072 89.998C468.512 89.998 469.574 91.114 469.574 92.734C469.574 94.354 468.512 95.47 467.072 95.47ZM474.431 88.468H472.541L475.061 97H477.311L479.021 91.006L480.731 97H482.981L485.501 88.468H483.611L481.811 95.11L480.101 88.468H477.941L476.231 95.11L474.431 88.468ZM490.612 93.67C492.124 93.67 493.258 92.95 493.87 91.51L492.34 90.664C492.052 91.582 491.53 92.158 490.594 92.158C489.892 92.158 489.388 91.744 489.388 91.132C489.388 90.376 490.018 89.998 491.098 89.746C493.438 89.206 494.248 88.27 494.248 86.83C494.248 85.3 492.988 84.22 490.738 84.22C488.848 84.22 487.318 85.12 486.688 87.01L488.218 87.82C488.578 86.38 489.568 85.75 490.648 85.75C491.818 85.75 492.448 86.29 492.448 86.92C492.448 87.64 491.926 88.072 490.612 88.306C488.866 88.612 487.588 89.422 487.588 91.15C487.588 92.59 488.74 93.67 490.612 93.67ZM489.568 97H491.728V94.84H489.568V97Z" fill="white"/>
<rect x="697" y="219" width="84" height="62" rx="20" fill="#3298F9"/>
<path d="M795.024 272.785L773.588 274.634L779.829 257.552L780.837 260.197C782.851 265.483 787.009 269.669 792.281 271.719L795.024 272.785Z" fill="#3298F9"/>
<path d="M724.87 253.864C727.75 253.864 729.862 251.896 729.862 249.352C729.862 246.856 727.75 244.936 724.87 244.936C721.99 244.936 719.83 246.904 719.83 249.352C719.83 251.848 721.99 253.864 724.87 253.864ZM739.026 253.864C741.906 253.864 744.018 251.896 744.018 249.352C744.018 246.856 741.906 244.936 739.026 244.936C736.146 244.936 733.986 246.904 733.986 249.352C733.986 251.848 736.146 253.864 739.026 253.864ZM753.182 253.864C756.062 253.864 758.174 251.896 758.174 249.352C758.174 246.856 756.062 244.936 753.182 244.936C750.302 244.936 748.142 246.904 748.142 249.352C748.142 251.848 750.302 253.864 753.182 253.864Z" fill="white"/>
<path d="M253.466 169V168.712C252.926 168.1 252.89 167.38 252.836 166.138C252.764 164.482 252.026 163.6 250.856 163.15C252.422 162.61 253.376 161.44 253.376 159.82C253.376 157.93 251.936 156.4 249.326 156.4H243.296V169H245.276V163.78H248.336C249.668 163.78 250.586 164.266 250.586 166.12C250.586 167.92 250.766 168.46 251.036 169H253.466ZM245.276 161.89V158.29H249.146C250.496 158.29 251.306 158.92 251.306 160.09C251.306 161.26 250.496 161.89 249.146 161.89H245.276ZM259.39 167.56C258.184 167.56 256.834 166.84 256.834 165.04H262.864C262.918 164.752 262.954 164.446 262.954 164.05C262.954 161.692 261.316 160.288 259.102 160.288C256.564 160.288 254.944 162.25 254.944 164.68C254.944 167.47 256.744 169.18 259.372 169.18C261.424 169.18 262.738 168.136 263.314 166.39L261.694 165.76C261.424 166.93 260.614 167.56 259.39 167.56ZM259.084 161.908C260.2 161.908 261.082 162.538 261.082 163.618C261.082 163.69 261.064 163.78 261.064 163.78H256.834C257.014 162.61 257.914 161.908 259.084 161.908ZM268.826 169.18C270.086 169.18 271.148 168.586 271.688 167.56V169H273.506V156.4H271.616V161.98C271.148 160.99 270.194 160.288 268.826 160.288C266.396 160.288 264.866 162.178 264.866 164.788C264.866 167.308 266.396 169.18 268.826 169.18ZM269.222 167.506C267.872 167.506 266.756 166.462 266.756 164.788C266.756 163.114 267.872 161.998 269.222 161.998C270.482 161.998 271.688 163.06 271.688 164.788C271.688 166.516 270.482 167.506 269.222 167.506ZM281.931 160.468V164.95C281.931 166.57 281.031 167.56 279.771 167.56C278.691 167.56 278.061 166.84 278.061 165.49V160.468H276.171V165.94C276.171 168.19 277.521 169.18 279.285 169.18C280.581 169.18 281.391 168.55 281.931 167.65V169H283.821V160.468H281.931ZM287.777 164.68C287.777 162.79 289.127 161.908 290.297 161.908C291.557 161.908 292.457 162.7 292.637 163.96L294.347 163.42C293.987 161.44 292.367 160.288 290.297 160.288C287.957 160.288 285.977 162.07 285.977 164.68C285.977 167.38 287.777 169.18 290.567 169.18C292.637 169.18 294.347 168.01 294.797 165.76L293.087 165.13C292.907 166.39 292.187 167.56 290.477 167.56C289.127 167.56 287.777 166.48 287.777 164.68ZM296.717 159.01H298.787V156.94H296.717V159.01ZM296.807 160.468V169H298.697V160.468H296.807ZM303.259 169V164.248C303.259 162.736 304.159 161.908 305.275 161.908C306.319 161.908 307.039 162.664 307.039 164.068V169H308.929V163.42C308.929 161.422 307.669 160.288 305.941 160.288C304.879 160.288 303.889 160.684 303.259 161.71V160.468H301.369V169H303.259ZM315.586 172.744C318.286 172.744 319.726 170.89 319.726 168.28V160.468H317.836V161.62C317.296 160.81 316.486 160.288 315.136 160.288C312.886 160.288 311.086 162.07 311.086 164.77C311.086 167.38 312.796 169 314.956 169C316.396 169 317.386 168.37 317.836 167.47V168.37C317.836 169.99 317.206 171.124 315.586 171.124C314.416 171.124 313.516 170.53 313.246 169.36L311.536 170.08C312.166 171.97 313.606 172.744 315.586 172.744ZM315.442 167.38C314.056 167.38 312.976 166.408 312.976 164.77C312.976 162.97 314.056 161.908 315.442 161.908C316.846 161.908 317.908 163.06 317.908 164.662C317.908 166.246 316.846 167.38 315.442 167.38ZM327.076 160.468V169H328.966V163.834C328.966 162.574 329.596 161.98 330.406 161.98C331.216 161.98 331.846 162.574 331.846 163.654V169H333.736V163.654C333.736 162.574 334.366 161.98 335.176 161.98C335.986 161.98 336.616 162.574 336.616 163.654V169H338.506V163.24C338.506 161.26 337.426 160.288 335.896 160.288C334.906 160.288 333.916 160.81 333.466 162.07C333.106 160.81 332.206 160.288 331.216 160.288C330.046 160.288 329.326 160.864 328.966 161.674V160.468H327.076ZM346.539 160.468L344.055 165.688L341.733 160.468H339.699L343.065 167.74L340.779 172.564H342.759L348.519 160.468H346.539ZM358.131 169.18C360.075 169.18 361.605 168.082 361.605 166.48C361.605 165.058 360.795 164.176 358.635 163.852C357.087 163.618 356.475 163.42 356.475 162.736C356.475 162.196 357.123 161.8 357.969 161.8C358.779 161.8 359.373 162.142 359.643 162.934L361.083 162.142C360.579 161.062 359.715 160.288 357.951 160.288C356.205 160.288 354.765 161.26 354.765 162.7C354.765 164.176 355.881 164.914 357.699 165.202C359.427 165.472 359.805 165.85 359.805 166.57C359.805 167.128 359.229 167.56 358.203 167.56C357.051 167.56 356.295 167.11 355.827 166.03L354.297 166.84C354.837 168.226 356.097 169.18 358.131 169.18ZM365.021 164.68C365.021 162.79 366.371 161.908 367.541 161.908C368.801 161.908 369.701 162.7 369.881 163.96L371.591 163.42C371.231 161.44 369.611 160.288 367.541 160.288C365.201 160.288 363.221 162.07 363.221 164.68C363.221 167.38 365.021 169.18 367.811 169.18C369.881 169.18 371.591 168.01 372.041 165.76L370.331 165.13C370.151 166.39 369.431 167.56 367.721 167.56C366.371 167.56 365.021 166.48 365.021 164.68ZM376.517 169.18C378.101 169.18 379.019 168.46 379.379 167.56V169H381.179V163.69C381.179 161.53 379.829 160.288 377.399 160.288C375.239 160.288 373.979 161.44 373.619 163.06L375.329 163.51C375.509 162.52 376.229 161.818 377.399 161.818C378.479 161.818 379.379 162.43 379.379 163.6V164.23L378.479 164.014C377.975 163.888 377.471 163.834 376.967 163.834C375.239 163.834 373.709 164.608 373.709 166.57C373.709 168.28 375.149 169.18 376.517 169.18ZM377.273 167.56C376.139 167.56 375.689 167.02 375.689 166.39C375.689 165.598 376.355 165.256 377.273 165.256C377.615 165.256 377.993 165.31 378.695 165.49L379.379 165.67V165.76C379.379 166.93 378.479 167.56 377.273 167.56ZM383.851 160.468V169H385.741V163.33C385.741 162.43 386.281 161.908 387.091 161.908C387.811 161.908 388.351 162.376 388.351 163.06C388.351 163.33 388.333 163.51 388.279 163.78H390.151C390.241 163.42 390.277 163.06 390.277 162.7C390.277 161.35 389.251 160.288 387.811 160.288C386.785 160.288 386.083 160.81 385.741 161.71V160.468H383.851ZM395.466 169.18C397.41 169.18 398.94 168.082 398.94 166.48C398.94 165.058 398.13 164.176 395.97 163.852C394.422 163.618 393.81 163.42 393.81 162.736C393.81 162.196 394.458 161.8 395.304 161.8C396.114 161.8 396.708 162.142 396.978 162.934L398.418 162.142C397.914 161.062 397.05 160.288 395.286 160.288C393.54 160.288 392.1 161.26 392.1 162.7C392.1 164.176 393.216 164.914 395.034 165.202C396.762 165.472 397.14 165.85 397.14 166.57C397.14 167.128 396.564 167.56 395.538 167.56C394.386 167.56 393.63 167.11 393.162 166.03L391.632 166.84C392.172 168.226 393.432 169.18 395.466 169.18ZM408.28 169.18C409.864 169.18 410.782 168.46 411.142 167.56V169H412.942V163.69C412.942 161.53 411.592 160.288 409.162 160.288C407.002 160.288 405.742 161.44 405.382 163.06L407.092 163.51C407.272 162.52 407.992 161.818 409.162 161.818C410.242 161.818 411.142 162.43 411.142 163.6V164.23L410.242 164.014C409.738 163.888 409.234 163.834 408.73 163.834C407.002 163.834 405.472 164.608 405.472 166.57C405.472 168.28 406.912 169.18 408.28 169.18ZM409.036 167.56C407.902 167.56 407.452 167.02 407.452 166.39C407.452 165.598 408.118 165.256 409.036 165.256C409.378 165.256 409.756 165.31 410.458 165.49L411.142 165.67V165.76C411.142 166.93 410.242 167.56 409.036 167.56ZM417.503 169V164.248C417.503 162.736 418.403 161.908 419.519 161.908C420.563 161.908 421.283 162.664 421.283 164.068V169H423.173V163.42C423.173 161.422 421.913 160.288 420.185 160.288C419.123 160.288 418.133 160.684 417.503 161.71V160.468H415.613V169H417.503ZM429.29 169.18C430.55 169.18 431.612 168.586 432.152 167.56V169H433.97V156.4H432.08V161.98C431.612 160.99 430.658 160.288 429.29 160.288C426.86 160.288 425.33 162.178 425.33 164.788C425.33 167.308 426.86 169.18 429.29 169.18ZM429.686 167.506C428.336 167.506 427.22 166.462 427.22 164.788C427.22 163.114 428.336 161.998 429.686 161.998C430.946 161.998 432.152 163.06 432.152 164.788C432.152 166.516 430.946 167.506 429.686 167.506ZM245.042 191V186.464C245.042 184.808 246.014 183.854 247.184 183.854C248.444 183.854 249.146 184.574 249.146 185.924V191H251.036V185.384C251.036 183.584 249.884 182.288 247.994 182.288C246.554 182.288 245.492 183.044 245.042 184.214V178.4H243.152V191H245.042ZM259.082 182.468L256.598 187.688L254.276 182.468H252.242L255.608 189.74L253.322 194.564H255.302L261.062 182.468H259.082ZM262.786 182.468V194.564H264.676V189.812C265.234 190.748 266.296 191.18 267.376 191.18C269.806 191.18 271.426 189.398 271.426 186.788C271.426 184.178 269.896 182.288 267.556 182.288C266.386 182.288 265.18 182.954 264.604 183.98V182.468H262.786ZM264.604 186.788C264.604 185.078 265.81 183.998 267.07 183.998C268.42 183.998 269.536 185.132 269.536 186.788C269.536 188.444 268.42 189.506 267.07 189.506C265.81 189.506 264.604 188.498 264.604 186.788ZM277.529 189.56C276.323 189.56 274.973 188.84 274.973 187.04H281.003C281.057 186.752 281.093 186.446 281.093 186.05C281.093 183.692 279.455 182.288 277.241 182.288C274.703 182.288 273.083 184.25 273.083 186.68C273.083 189.47 274.883 191.18 277.511 191.18C279.563 191.18 280.877 190.136 281.453 188.39L279.833 187.76C279.563 188.93 278.753 189.56 277.529 189.56ZM277.223 183.908C278.339 183.908 279.221 184.538 279.221 185.618C279.221 185.69 279.203 185.78 279.203 185.78H274.973C275.153 184.61 276.053 183.908 277.223 183.908ZM283.51 182.468V191H285.4V185.33C285.4 184.43 285.94 183.908 286.75 183.908C287.47 183.908 288.01 184.376 288.01 185.06C288.01 185.33 287.992 185.51 287.938 185.78H289.81C289.9 185.42 289.936 185.06 289.936 184.7C289.936 183.35 288.91 182.288 287.47 182.288C286.444 182.288 285.742 182.81 285.4 183.71V182.468H283.51ZM292.061 182.468V194.564H293.951V189.812C294.509 190.748 295.571 191.18 296.651 191.18C299.081 191.18 300.701 189.398 300.701 186.788C300.701 184.178 299.171 182.288 296.831 182.288C295.661 182.288 294.455 182.954 293.879 183.98V182.468H292.061ZM293.879 186.788C293.879 185.078 295.085 183.998 296.345 183.998C297.695 183.998 298.811 185.132 298.811 186.788C298.811 188.444 297.695 189.506 296.345 189.506C295.085 189.506 293.879 188.498 293.879 186.788ZM302.773 181.01H304.843V178.94H302.773V181.01ZM302.863 182.468V191H304.753V182.468H302.863ZM311.42 194.744C314.12 194.744 315.56 192.89 315.56 190.28V182.468H313.67V183.62C313.13 182.81 312.32 182.288 310.97 182.288C308.72 182.288 306.92 184.07 306.92 186.77C306.92 189.38 308.63 191 310.79 191C312.23 191 313.22 190.37 313.67 189.47V190.37C313.67 191.99 313.04 193.124 311.42 193.124C310.25 193.124 309.35 192.53 309.08 191.36L307.37 192.08C308 193.97 309.44 194.744 311.42 194.744ZM311.276 189.38C309.89 189.38 308.81 188.408 308.81 186.77C308.81 184.97 309.89 183.908 311.276 183.908C312.68 183.908 313.742 185.06 313.742 186.662C313.742 188.246 312.68 189.38 311.276 189.38ZM318.225 182.468V191H320.115V185.834C320.115 184.574 320.745 183.98 321.555 183.98C322.365 183.98 322.995 184.574 322.995 185.654V191H324.885V185.654C324.885 184.574 325.515 183.98 326.325 183.98C327.135 183.98 327.765 184.574 327.765 185.654V191H329.655V185.24C329.655 183.26 328.575 182.288 327.045 182.288C326.055 182.288 325.065 182.81 324.615 184.07C324.255 182.81 323.355 182.288 322.365 182.288C321.195 182.288 320.475 182.864 320.115 183.674V182.468H318.225ZM336.256 189.56C335.05 189.56 333.7 188.84 333.7 187.04H339.73C339.784 186.752 339.82 186.446 339.82 186.05C339.82 183.692 338.182 182.288 335.968 182.288C333.43 182.288 331.81 184.25 331.81 186.68C331.81 189.47 333.61 191.18 336.238 191.18C338.29 191.18 339.604 190.136 340.18 188.39L338.56 187.76C338.29 188.93 337.48 189.56 336.256 189.56ZM335.95 183.908C337.066 183.908 337.948 184.538 337.948 185.618C337.948 185.69 337.93 185.78 337.93 185.78H333.7C333.88 184.61 334.78 183.908 335.95 183.908ZM344.126 191V186.248C344.126 184.736 345.026 183.908 346.142 183.908C347.186 183.908 347.906 184.664 347.906 186.068V191H349.796V185.42C349.796 183.422 348.536 182.288 346.808 182.288C345.746 182.288 344.756 182.684 344.126 183.71V182.468H342.236V191H344.126ZM356.26 191.18C357.88 191.18 358.96 190.19 359.14 188.48L357.34 188.12C357.268 189.11 356.89 189.56 356.17 189.56C355.63 189.56 355.09 189.2 355.09 188.39V184.088H358.33V182.468H355.09V179.75H353.2V182.468H351.49V184.088H353.2V188.3C353.2 190.01 354.19 191.18 356.26 191.18ZM363.581 191.18C365.165 191.18 366.083 190.46 366.443 189.56V191H368.243V185.69C368.243 183.53 366.893 182.288 364.463 182.288C362.303 182.288 361.043 183.44 360.683 185.06L362.393 185.51C362.573 184.52 363.293 183.818 364.463 183.818C365.543 183.818 366.443 184.43 366.443 185.6V186.23L365.543 186.014C365.039 185.888 364.535 185.834 364.031 185.834C362.303 185.834 360.773 186.608 360.773 188.57C360.773 190.28 362.213 191.18 363.581 191.18ZM364.337 189.56C363.203 189.56 362.753 189.02 362.753 188.39C362.753 187.598 363.419 187.256 364.337 187.256C364.679 187.256 365.057 187.31 365.759 187.49L366.443 187.67V187.76C366.443 188.93 365.543 189.56 364.337 189.56ZM374.382 191.18C376.002 191.18 377.082 190.19 377.262 188.48L375.462 188.12C375.39 189.11 375.012 189.56 374.292 189.56C373.752 189.56 373.212 189.2 373.212 188.39V184.088H376.452V182.468H373.212V179.75H371.322V182.468H369.612V184.088H371.322V188.3C371.322 190.01 372.312 191.18 374.382 191.18ZM379.147 181.01H381.217V178.94H379.147V181.01ZM379.237 182.468V191H381.127V182.468H379.237ZM387.686 191.18C390.296 191.18 392.078 189.254 392.078 186.734C392.078 184.214 390.296 182.288 387.686 182.288C385.076 182.288 383.294 184.214 383.294 186.734C383.294 189.254 385.076 191.18 387.686 191.18ZM387.686 189.47C386.246 189.47 385.184 188.354 385.184 186.734C385.184 185.114 386.246 183.998 387.686 183.998C389.126 183.998 390.188 185.114 390.188 186.734C390.188 188.354 389.126 189.47 387.686 189.47ZM396.12 191V186.248C396.12 184.736 397.02 183.908 398.136 183.908C399.18 183.908 399.9 184.664 399.9 186.068V191H401.79V185.42C401.79 183.422 400.53 182.288 398.802 182.288C397.74 182.288 396.75 182.684 396.12 183.71V182.468H394.23V191H396.12ZM404.776 193.16C405.676 193.16 406.576 192.89 406.576 191.54V188.84H404.416V191H404.884C405.244 191 405.496 191.18 405.496 191.54C405.496 191.9 405.226 192.08 404.776 192.08C404.326 192.08 404.128 191.972 403.966 191.9L403.786 192.98C404.02 193.088 404.326 193.16 404.776 193.16ZM416.356 191.18C417.94 191.18 418.858 190.46 419.218 189.56V191H421.018V185.69C421.018 183.53 419.668 182.288 417.238 182.288C415.078 182.288 413.818 183.44 413.458 185.06L415.168 185.51C415.348 184.52 416.068 183.818 417.238 183.818C418.318 183.818 419.218 184.43 419.218 185.6V186.23L418.318 186.014C417.814 185.888 417.31 185.834 416.806 185.834C415.078 185.834 413.548 186.608 413.548 188.57C413.548 190.28 414.988 191.18 416.356 191.18ZM417.112 189.56C415.978 189.56 415.528 189.02 415.528 188.39C415.528 187.598 416.194 187.256 417.112 187.256C417.454 187.256 417.832 187.31 418.534 187.49L419.218 187.67V187.76C419.218 188.93 418.318 189.56 417.112 189.56ZM425.58 191V186.248C425.58 184.736 426.48 183.908 427.596 183.908C428.64 183.908 429.36 184.664 429.36 186.068V191H431.25V185.42C431.25 183.422 429.99 182.288 428.262 182.288C427.2 182.288 426.21 182.684 425.58 183.71V182.468H423.69V191H425.58ZM437.367 191.18C438.627 191.18 439.689 190.586 440.229 189.56V191H442.047V178.4H440.157V183.98C439.689 182.99 438.735 182.288 437.367 182.288C434.937 182.288 433.407 184.178 433.407 186.788C433.407 189.308 434.937 191.18 437.367 191.18ZM437.763 189.506C436.413 189.506 435.297 188.462 435.297 186.788C435.297 185.114 436.413 183.998 437.763 183.998C439.023 183.998 440.229 185.06 440.229 186.788C440.229 188.516 439.023 189.506 437.763 189.506ZM452.853 191.18C454.113 191.18 455.175 190.586 455.715 189.56V191H457.533V178.4H455.643V183.98C455.175 182.99 454.221 182.288 452.853 182.288C450.423 182.288 448.893 184.178 448.893 186.788C448.893 189.308 450.423 191.18 452.853 191.18ZM453.249 189.506C451.899 189.506 450.783 188.462 450.783 186.788C450.783 185.114 451.899 183.998 453.249 183.998C454.509 183.998 455.715 185.06 455.715 186.788C455.715 188.516 454.509 189.506 453.249 189.506ZM460.198 182.468V191H462.088V185.33C462.088 184.43 462.628 183.908 463.438 183.908C464.158 183.908 464.698 184.376 464.698 185.06C464.698 185.33 464.68 185.51 464.626 185.78H466.498C466.588 185.42 466.624 185.06 466.624 184.7C466.624 183.35 465.598 182.288 464.158 182.288C463.132 182.288 462.43 182.81 462.088 183.71V182.468H460.198ZM474.564 182.468L472.08 187.688L469.758 182.468H467.724L471.09 189.74L468.804 194.564H470.784L476.544 182.468H474.564ZM486.156 191.18C488.1 191.18 489.63 190.082 489.63 188.48C489.63 187.058 488.82 186.176 486.66 185.852C485.112 185.618 484.5 185.42 484.5 184.736C484.5 184.196 485.148 183.8 485.994 183.8C486.804 183.8 487.398 184.142 487.668 184.934L489.108 184.142C488.604 183.062 487.74 182.288 485.976 182.288C484.23 182.288 482.79 183.26 482.79 184.7C482.79 186.176 483.906 186.914 485.724 187.202C487.452 187.472 487.83 187.85 487.83 188.57C487.83 189.128 487.254 189.56 486.228 189.56C485.076 189.56 484.32 189.11 483.852 188.03L482.322 188.84C482.862 190.226 484.122 191.18 486.156 191.18ZM495.998 185.96L499.31 182.468H496.88L493.64 186.05V178.4H491.75V191H493.64V188.444L494.702 187.328L497.24 191H499.49L495.998 185.96ZM501.301 181.01H503.371V178.94H501.301V181.01ZM501.391 182.468V191H503.281V182.468H501.391ZM507.842 191V186.248C507.842 184.736 508.742 183.908 509.858 183.908C510.902 183.908 511.622 184.664 511.622 186.068V191H513.512V185.42C513.512 183.422 512.252 182.288 510.524 182.288C509.462 182.288 508.472 182.684 507.842 183.71V182.468H505.952V191H507.842ZM516.317 187.76H518.117V178.4H516.317V187.76ZM516.137 191H518.297V188.84H516.137V191Z" fill="white"/>
</svg>
