<svg width="715" height="69" viewBox="0 0 715 69" fill="none" xmlns="http://www.w3.org/2000/svg">
<path d="M57.8524 3.2H48.5704V5.202H52.0144V13H54.4644V5.202H57.8524V3.2ZM66.7614 3.186V7.05H61.7214V3.186H59.2714V13H61.7214V8.94H66.7614V13H69.2114V3.186H66.7614ZM71.6171 13H74.0671V3.186H71.6171V13ZM84.2406 3.2V10.452L79.8166 3.2H76.4706V13H78.6826V5.58L83.2606 13H86.4386V3.2H84.2406ZM63.4419 26.472H72.5559V24.596H63.4419V26.472ZM22.0868 37.2L20.3088 44.382L18.2368 37.2H15.3388L13.3088 44.242L11.6148 37.2H9.09478L11.6848 47H14.5968L16.6968 39.692L18.8388 47H21.9468L24.5928 37.2H22.0868ZM32.829 47H35.349L31.695 37.2H28.251L24.541 47H27.005L27.831 44.718H32.017L32.829 47ZM28.391 43.164L29.917 38.894L31.457 43.164H28.391ZM43.9686 37.2H34.6866V39.202H38.1306V47H40.5806V39.202H43.9686V37.2ZM47.8376 45.124V42.814H53.2276V41.05H47.8376V39.076H53.5496V37.2H45.3876V47H53.6056V45.124H47.8376ZM65.0231 47L61.3131 43.262H61.6211C63.6371 43.262 64.8551 42.058 64.8551 40.266C64.8551 38.46 63.4971 37.2 61.4531 37.2H55.5731V47H58.0231V42.744L61.9571 47H65.0231ZM58.0231 39.048H60.6411C61.7051 39.048 62.3211 39.566 62.3211 40.434C62.3211 41.358 61.6631 41.89 60.5011 41.89H58.0231V39.048ZM66.285 43.332H71.969V41.274H66.285V43.332ZM81.4069 41.638C82.4429 41.33 83.0169 40.616 83.0169 39.622C83.0169 38.292 81.8269 37.2 79.6429 37.2H74.0849V47H79.4889C82.1629 47 83.4089 45.74 83.4089 44.088C83.4089 42.884 82.7369 41.96 81.4069 41.638ZM78.9989 38.95C79.9649 38.95 80.4409 39.37 80.4409 40.126C80.4409 40.84 79.9649 41.26 79.0689 41.26H76.5069V38.95H78.9989ZM79.0409 45.236H76.5069V42.702H79.1389C80.2309 42.702 80.8049 43.136 80.8049 43.948C80.8049 44.788 80.2309 45.236 79.0409 45.236ZM92.1923 47H94.7123L91.0583 37.2H87.6143L83.9043 47H86.3683L87.1943 44.718H91.3803L92.1923 47ZM87.7543 43.164L89.2803 38.894L90.8203 43.164H87.7543ZM99.7552 47.266C102.415 47.266 104.137 46.006 104.137 44.088C104.137 42.562 103.241 41.68 101.183 41.232L99.3072 40.826C98.2992 40.616 97.9632 40.336 97.9632 39.874C97.9632 39.244 98.6632 38.866 100.077 38.866C101.589 38.866 102.835 39.314 103.633 39.888V37.942C102.905 37.452 101.687 36.934 99.8532 36.934C96.9692 36.934 95.4292 38.18 95.4292 39.916C95.4292 41.288 96.2692 42.254 98.3132 42.702L100.091 43.094C101.239 43.374 101.575 43.696 101.575 44.242C101.575 44.998 100.875 45.362 99.5452 45.362C97.9912 45.362 96.6192 44.844 95.4572 44.046V46.048C96.5492 46.776 98.0612 47.266 99.7552 47.266ZM108.363 45.124V42.814H113.753V41.05H108.363V39.076H114.075V37.2H105.913V47H114.131V45.124H108.363ZM116.099 47H120.607C124.597 47 126.585 44.872 126.585 42.058C126.585 39.244 124.709 37.2 120.985 37.2H116.099V47ZM118.549 45.124V39.076H120.789C123.001 39.076 123.981 40.28 123.981 42.044C123.981 43.948 122.791 45.124 120.579 45.124H118.549Z" fill="#555555"/>
<path d="M657.328 3.2H648.046V5.202H651.49V13H653.94V5.202H657.328V3.2ZM666.237 3.186V7.05H661.197V3.186H658.747V13H661.197V8.94H666.237V13H668.687V3.186H666.237ZM671.093 13H673.543V3.186H671.093V13ZM681.322 13.308C682.932 13.308 684.192 12.93 685.382 12.104V9.976C684.528 10.704 683.296 11.166 681.868 11.166C679.446 11.166 677.976 9.85 677.976 8.072C677.976 6.294 679.432 5.006 681.868 5.006C683.324 5.006 684.5 5.468 685.326 6.112V3.914C684.318 3.284 683.044 2.892 681.42 2.892C677.668 2.892 675.33 5.132 675.33 8.142C675.33 11.04 677.528 13.308 681.322 13.308ZM697.235 13L692.209 7.652L697.137 3.2H694.057L689.703 7.246V3.2H687.253V13H689.703V8.212L694.071 13H697.235ZM667.942 26.472H677.056V24.596H667.942V26.472ZM660.389 47.308C663.917 47.308 666.283 44.984 666.283 42.072C666.283 39.132 663.917 36.892 660.389 36.892C656.833 36.892 654.467 39.132 654.467 42.072C654.467 44.97 656.833 47.308 660.389 47.308ZM660.389 45.222C658.359 45.222 657.071 43.892 657.071 42.086C657.071 40.28 658.359 38.978 660.389 38.978C662.391 38.978 663.679 40.28 663.679 42.086C663.679 43.892 662.391 45.222 660.389 45.222ZM668.071 47H670.521V37.186H668.071V47ZM675.375 44.914V37.2H672.925V47H680.891V44.914H675.375ZM686.167 47.266C688.827 47.266 690.549 46.006 690.549 44.088C690.549 42.562 689.653 41.68 687.595 41.232L685.719 40.826C684.711 40.616 684.375 40.336 684.375 39.874C684.375 39.244 685.075 38.866 686.489 38.866C688.001 38.866 689.247 39.314 690.045 39.888V37.942C689.317 37.452 688.099 36.934 686.265 36.934C683.381 36.934 681.841 38.18 681.841 39.916C681.841 41.288 682.681 42.254 684.725 42.702L686.503 43.094C687.651 43.374 687.987 43.696 687.987 44.242C687.987 44.998 687.287 45.362 685.957 45.362C684.403 45.362 683.031 44.844 681.869 44.046V46.048C682.961 46.776 684.473 47.266 686.167 47.266Z" fill="#555555"/>
<path d="M140 10L181.016 28.4694C207.185 40.2533 237.15 40.2533 263.319 28.4694V28.4694C289.409 16.721 319.581 16.8202 345.7 28.504V28.504C371.815 40.1862 401.975 40.3223 428.091 28.6401L429.762 27.8926C455.178 16.523 484.268 16.6881 509.553 28.3455V28.3455C535.226 40.1812 564.798 40.1621 590.456 28.293L630 10" stroke="#3298F9" stroke-width="3"/>
<path d="M363.25 12.194H360.702L363.796 15.008H356.376V16.926H363.81L360.702 19.754H363.25L366.596 16.674V15.302L363.25 12.194ZM387.336 11.2H378.054V13.202H381.498V21H383.948V13.202H387.336V11.2ZM393.705 21.308C397.233 21.308 399.599 18.984 399.599 16.072C399.599 13.132 397.233 10.892 393.705 10.892C390.149 10.892 387.783 13.132 387.783 16.072C387.783 18.97 390.149 21.308 393.705 21.308ZM393.705 19.222C391.675 19.222 390.387 17.892 390.387 16.086C390.387 14.28 391.675 12.978 393.705 12.978C395.707 12.978 396.995 14.28 396.995 16.086C396.995 17.892 395.707 19.222 393.705 19.222ZM414.998 12.194H412.45L415.544 15.008H408.124V16.926H415.558L412.45 19.754H414.998L418.344 16.674V15.302L414.998 12.194Z" fill="#3298F9"/>
</svg>
