<svg width="33" height="32" viewBox="0 0 33 32" fill="none" xmlns="http://www.w3.org/2000/svg">
<path d="M0.5 4C0.5 2.067 2.067 0.5 4 0.5H29C30.933 0.5 32.5 2.067 32.5 4V28C32.5 29.933 30.933 31.5 29 31.5H4C2.067 31.5 0.5 29.933 0.5 28V4Z" fill="#FFAE73" stroke="white"/>
<path d="M22.3724 14C22.3724 17.8372 19.1557 21 15.1224 21C11.0891 21 7.87244 17.8372 7.87244 14C7.87244 10.1628 11.0891 7 15.1224 7C19.1557 7 22.3724 10.1628 22.3724 14Z" stroke="white" stroke-width="2"/>
<path d="M19.5128 20.3789L21.7004 18.2576L25.5761 22.0157C26.1802 22.6015 26.1802 23.5513 25.5761 24.1371C24.972 24.7228 23.9926 24.7228 23.3885 24.1371L19.5128 20.3789Z" fill="white"/>
</svg>
