<svg width="23" height="23" viewBox="0 0 23 23" fill="none" xmlns="http://www.w3.org/2000/svg">
<path fill-rule="evenodd" clip-rule="evenodd" d="M0 9.71501V11.4707V13.2265C5.36713 13.3141 9.6718 17.6731 9.6718 23H11.5H13.2103C13.2758 17.655 17.6142 13.3144 23 13.2265V11.5293V9.71501C17.6207 9.64991 13.2759 5.33825 13.2103 0L11.618 7.00008e-06L9.67179 0C9.67179 5.31964 5.36016 9.65014 0 9.71501ZM11.3819 8.72024C10.7398 9.96623 9.7184 10.9798 8.46282 11.617C9.7184 12.2543 10.7398 13.2679 11.3819 14.5138C12.024 13.2679 13.0454 12.2543 14.301 11.617C13.0454 10.9798 12.024 9.96623 11.3819 8.72024Z" fill="black"/>
</svg>
